<?xml version="1.0" encoding="UTF-8" standalone="no"?>
<svg
   version="1.1"
   viewBox="0 0 181 53.755905"
   fill="none"
   stroke="none"
   stroke-linecap="square"
   stroke-miterlimit="10"
   id="svg13"
   sodipodi:docname="tmp-trim.svg"
   width="181"
   height="53.755905"
   xmlns:inkscape="http://www.inkscape.org/namespaces/inkscape"
   xmlns:sodipodi="http://sodipodi.sourceforge.net/DTD/sodipodi-0.dtd"
   xmlns="http://www.w3.org/2000/svg"
   xmlns:svg="http://www.w3.org/2000/svg">
  <defs
     id="defs17" />
  <sodipodi:namedview
     id="namedview15"
     pagecolor="#ffffff"
     bordercolor="#000000"
     borderopacity="0.25"
     inkscape:showpageshadow="2"
     inkscape:pageopacity="0.0"
     inkscape:pagecheckerboard="0"
     inkscape:deskcolor="#d1d1d1" />
  <clipPath
     id="g20860518b9d_1_0.0">
    <path
       d="M 0,0 H 960 V 540 H 0 Z"
       clip-rule="nonzero"
       id="path2" />
  </clipPath>
  <g
     clip-path="url(#g20860518b9d_1_0.0)"
     id="g11"
     transform="translate(-339.40814,-179.5)">
    <path
       fill="#eeeeee"
       d="m 339.90814,180 h 180 v 52.7559 h -180 z"
       fill-rule="evenodd"
       id="path5" />
    <path
       stroke="#595959"
       stroke-width="1"
       stroke-linejoin="round"
       stroke-linecap="butt"
       d="m 339.90814,180 h 180 v 52.7559 h -180 z"
       fill-rule="evenodd"
       id="path7" />
    <path
       fill="#000000"
       d="m 411.95502,213.29794 q 1.40625,-2 2.73437,-5.42188 l 1.1875,0.89063 q -0.95312,2.89062 -2.375,5.34375 0.0781,0.82812 -0.4375,0.29687 z m 10.53125,-2.75 h -5.48438 v -11.71875 h 5.48438 z m -1.26563,-8.3125 v -2 h -2.96875 v 2 z m 0,3.34375 v -1.9375 h -2.96875 v 1.9375 z m 0,3.5625 v -2.15625 h -2.96875 v 2.15625 z m -0.0625,1.5625 q 1.54688,1.25 2.51563,2.59375 l -1.1875,1.04687 q -0.89063,-1.34375 -2.29688,-2.6875 z m -1.5625,1.10937 q 0.21875,0.21875 -0.375,0.29688 -1.26562,1.48437 -2.96875,2.67187 l -0.8125,-1.32812 q 1.85938,-1.26563 3.04688,-2.75 z m 5.71875,-1.5625 h -1.48437 v -9.9375 h 1.40625 q 0.59375,0.0625 0.0781,0.4375 z m 0.35938,4.39063 -0.29688,-1.42188 h 0.96875 q 0.29688,0 0.29688,-0.29687 v -14.32813 h 1.40625 q 0.59375,0.0781 0.0781,0.45313 v 14.40625 q 0,1.1875 -1.1875,1.1875 z m -11.79688,-15.8125 q 1.34375,0.65625 2.45313,1.70312 l -0.96875,1.40625 q -1.10938,-1.03125 -2.375,-1.78125 z m -0.67187,4.375 q 1.5625,0.8125 2.67187,1.70312 l -0.95312,1.40625 q -0.96875,-0.8125 -2.60938,-1.78125 z m 34.96875,8.3125 q -0.0781,1.26562 -0.45313,2.15625 -0.29687,0.73437 -1.03125,0.73437 -1.04687,0 -2.07812,-2.375 -1.34375,-3.04687 -1.64063,-8.98437 h -5.34375 v -1.40625 h 5.26563 v -3.40625 h 1.42187 q 0.65625,0.14062 0.0625,0.4375 v 2.96875 h 3.26563 v 1.40625 h -3.1875 q 0.375,5.28125 1.10937,7.35937 0.67188,1.92188 0.89063,1.92188 0.29687,0 0.45312,-1.70313 z m -5.64063,-4.45313 h -1.48437 v 3.85938 l 2.14062,-0.67188 0.29688,1.34375 -4.89063,1.54688 q -0.21875,0.75 -0.45312,0.0781 l -0.51563,-1.5625 1.9375,-0.4375 v -4.15625 h -1.5625 v -1.40625 h 4.53125 z m -10.76562,-8.60937 h 4.82812 v 1.40625 h -4.82812 z m -0.96875,2.59375 h 6.23437 v 1.40625 h -6.23437 z m 0.96875,2.59375 h 4.82812 v 1.42187 h -4.82812 z m 0,2.60937 h 4.82812 v 1.40625 h -4.82812 z m 3.5625,7.9375 h -2.45313 v 0.75 h -1.48437 v -5.95312 h 5.42187 v 5.65625 h -1.48437 z m -2.45313,-4.01562 v 2.82812 h 2.45313 v -2.82812 z m 12.98438,-11.34375 q 0.67187,0.59375 1.42187,1.54687 l -1.1875,0.89063 q -0.75,-1.10938 -1.34375,-1.70313 z"
       fill-rule="nonzero"
       id="path9" />
  </g>
</svg>
