<?xml version="1.0" encoding="UTF-8" standalone="no"?>
<svg
   xmlns:dc="http://purl.org/dc/elements/1.1/"
   xmlns:cc="http://creativecommons.org/ns#"
   xmlns:rdf="http://www.w3.org/1999/02/22-rdf-syntax-ns#"
   xmlns:svg="http://www.w3.org/2000/svg"
   xmlns="http://www.w3.org/2000/svg"
   xmlns:sodipodi="http://sodipodi.sourceforge.net/DTD/sodipodi-0.dtd"
   xmlns:inkscape="http://www.inkscape.org/namespaces/inkscape"
   version="1.1"
   viewBox="0.0 0.0 960.0 540.0"
   fill="none"
   stroke="none"
   stroke-linecap="square"
   stroke-miterlimit="10"
   id="svg13"
   sodipodi:docname="測試 2023.02.12 模型架構圖+FSB關鍵字抽取 (1).svg">
  <metadata
     id="metadata19">
    <rdf:RDF>
      <cc:Work
         rdf:about="">
        <dc:format>image/svg+xml</dc:format>
        <dc:type
           rdf:resource="http://purl.org/dc/dcmitype/StillImage" />
      </cc:Work>
    </rdf:RDF>
  </metadata>
  <defs
     id="defs17" />
  <sodipodi:namedview
     pagecolor="#ffffff"
     bordercolor="#666666"
     borderopacity="1"
     objecttolerance="10"
     gridtolerance="10"
     guidetolerance="10"
     inkscape:pageopacity="0"
     inkscape:pageshadow="2"
     inkscape:window-width="640"
     inkscape:window-height="480"
     id="namedview15" />
  <clipPath
     id="g20860518b9d_1_0.0">
    <path
       d="m0 0l960.0 0l0 540.0l-960.0 0l0 -540.0z"
       clip-rule="nonzero"
       id="path2" />
  </clipPath>
  <g
     clip-path="url(#g20860518b9d_1_0.0)"
     id="g11">
    <path
       fill="#eeeeee"
       d="m339.90814 180.0l180.0 0l0 52.755905l-180.0 0z"
       fill-rule="evenodd"
       id="path5" />
    <path
       stroke="#595959"
       stroke-width="1.0"
       stroke-linejoin="round"
       stroke-linecap="butt"
       d="m339.90814 180.0l180.0 0l0 52.755905l-180.0 0z"
       fill-rule="evenodd"
       id="path7" />
    <path
       fill="#000000"
       d="m411.95502 213.29794q1.40625 -2.0 2.734375 -5.421875l1.1875 0.890625q-0.953125 2.890625 -2.375 5.34375q0.078125 0.828125 -0.4375 0.296875l-1.109375 -1.109375zm10.53125 -2.75l-5.484375 0l0 -11.71875l5.484375 0l0 11.71875zm-1.265625 -8.3125l0 -2.0l-2.96875 0l0 2.0l2.96875 0zm0 3.34375l0 -1.9375l-2.96875 0l0 1.9375l2.96875 0zm0 3.5625l0 -2.15625l-2.96875 0l0 2.15625l2.96875 0zm-0.0625 1.5625q1.546875 1.25 2.515625 2.59375l-1.1875 1.046875q-0.890625 -1.34375 -2.296875 -2.6875l0.96875 -0.953125zm-1.5625 1.109375q0.21875 0.21875 -0.375 0.296875q-1.265625 1.484375 -2.96875 2.671875l-0.8125 -1.328125q1.859375 -1.265625 3.046875 -2.75l1.109375 1.109375zm5.71875 -1.5625l-1.484375 0l0 -9.9375l1.40625 0q0.59375 0.0625 0.078125 0.4375l0 9.5zm0.359375 4.390625l-0.296875 -1.421875l0.96875 0q0.296875 0 0.296875 -0.296875l0 -14.328125l1.40625 0q0.59375 0.078125 0.078125 0.453125l0 14.40625q0 1.1875 -1.1875 1.1875l-1.265625 0zm-11.796875 -15.8125q1.34375 0.65625 2.453125 1.703125l-0.96875 1.40625q-1.109375 -1.03125 -2.375 -1.78125l0.890625 -1.328125zm-0.671875 4.375q1.5625 0.8125 2.671875 1.703125l-0.953125 1.40625q-0.96875 -0.8125 -2.609375 -1.78125l0.890625 -1.328125zm34.96875 8.3125q-0.078125 1.265625 -0.453125 2.15625q-0.296875 0.734375 -1.03125 0.734375q-1.046875 0 -2.078125 -2.375q-1.34375 -3.046875 -1.640625 -8.984375l-5.34375 0l0 -1.40625l5.265625 0l0 -3.40625l1.421875 0q0.65625 0.140625 0.0625 0.4375l0 2.96875l3.265625 0l0 1.40625l-3.1875 0q0.375 5.28125 1.109375 7.359375q0.671875 1.921875 0.890625 1.921875q0.296875 0 0.453125 -1.703125l1.265625 0.890625zm-5.640625 -4.453125l-1.484375 0l0 3.859375l2.140625 -0.671875l0.296875 1.34375l-4.890625 1.546875q-0.21875 0.75 -0.453125 0.078125l-0.515625 -1.5625l1.9375 -0.4375l0 -4.15625l-1.5625 0l0 -1.40625l4.53125 0l0 1.40625zm-10.765625 -8.609375l4.828125 0l0 1.40625l-4.828125 0l0 -1.40625zm-0.96875 2.59375l6.234375 0l0 1.40625l-6.234375 0l0 -1.40625zm0.96875 2.59375l4.828125 0l0 1.421875l-4.828125 0l0 -1.421875zm0 2.609375l4.828125 0l0 1.40625l-4.828125 0l0 -1.40625zm3.5625 7.9375l-2.453125 0l0 0.75l-1.484375 0l0 -5.953125l5.421875 0l0 5.65625l-1.484375 0l0 -0.453125zm-2.453125 -4.015625l0 2.828125l2.453125 0l0 -2.828125l-2.453125 0zm12.984375 -11.34375q0.671875 0.59375 1.421875 1.546875l-1.1875 0.890625q-0.75 -1.109375 -1.34375 -1.703125l1.109375 -0.734375z"
       fill-rule="nonzero"
       id="path9" />
  </g>
</svg>
